<?xml version="1.0" encoding="UTF-8" standalone="no"?>
<svg
   version="1.1"
   id="Layer_1"
   x="0px"
   y="0px"
   viewBox="0 0 2560 1600"
   enable-background="new 0 0 2560 1600"
   xml:space="preserve"
   xmlns:xlink="http://www.w3.org/1999/xlink"
   xmlns="http://www.w3.org/2000/svg"
   xmlns:svg="http://www.w3.org/2000/svg"><defs
   id="defs363"><pattern
     xlink:href="#New_Pattern_2"
     id="pattern1929" /><clipPath
     clipPathUnits="userSpaceOnUse"
     id="clipPath1584"><g
       id="use1586"><rect
         fill="url(#New_Pattern_2)"
         width="2559.9988"
         height="1600"
         id="rect1922"
         x="0"
         y="0" /><rect
         style="fill:#0000ff;fill-rule:evenodd"
         id="rect1924"
         width="521.29089"
         height="299.25958"
         x="820.55048"
         y="774.69617" /></g></clipPath><clipPath
     clipPathUnits="userSpaceOnUse"
     id="clipPath2034"><rect
       style="fill:#0000ff;fill-rule:evenodd"
       id="rect2036"
       width="521.29089"
       height="299.25958"
       x="820.55048"
       y="774.69617" /></clipPath></defs>
<pattern
   width="520"
   height="300"
   patternUnits="userSpaceOnUse"
   id="New_Pattern_2"
   viewBox="130.0942 -425 520 300"
   overflow="visible">
	<g
   id="g355">
		<polygon
   fill="none"
   points="130.0942,-425 650.0942,-425 650.0942,-125 130.0942,-125   "
   id="polygon219" />
		<g
   id="g241">
			<g
   id="g225">
				<g
   id="g223">
					<polygon
   fill="#FF6D6D"
   points="346.7921,-99.9996 260.1896,-49.9996 173.5876,-99.9993 260.1902,-149.9993      "
   id="polygon221" />
				</g>
			</g>
			<g
   id="g239">
				<g
   id="g231">
					<polygon
   fill="#0000FF"
   points="433.3969,-149.9993 346.7943,-99.9993 346.7943,0.0001 433.3969,-49.9999      "
   id="polygon227" />
					<polygon
   fill="#000080"
   points="519.9994,-99.9993 433.3969,-149.9993 433.3969,-49.9999 519.9994,0.0001      "
   id="polygon229" />
				</g>
				<g
   id="g237">
					<polygon
   fill="#00FF00"
   points="606.6019,-149.9993 519.9994,-99.9993 519.9994,0.0001 606.6019,-49.9999      "
   id="polygon233" />
					<polygon
   fill="#008000"
   points="693.2045,-99.9993 606.6019,-149.9993 606.6019,-49.9999 693.2045,0.0001      "
   id="polygon235" />
				</g>
			</g>
		</g>
		<g
   id="g249">
			<g
   id="g247">
				<g
   id="g245">
					<polygon
   fill="#008000"
   points="173.2045,-99.9993 86.6019,-149.9993 86.6019,-49.9999 173.2045,0.0001      "
   id="polygon243" />
				</g>
			</g>
		</g>
		<g
   id="g259">
			<g
   id="g257">
				<g
   id="g255">
					<polygon
   fill="#9292FF"
   points="780.1891,-250.0002 693.5865,-200.0002 606.9846,-249.9999 693.5871,-299.9999      "
   id="polygon251" />
					<polygon
   fill="#0000FF"
   points="693.5865,-100.0007 606.984,-150.0007 606.984,-250.0001 693.5865,-200.0001      "
   id="polygon253" />
				</g>
			</g>
		</g>
		<g
   id="g313">
			<g
   id="g285">
				<g
   id="g267">
					<polygon
   fill="#9292FF"
   points="260.1891,-250.0002 173.5865,-200.0002 86.9845,-249.9999 173.5871,-299.9999      "
   id="polygon261" />
					<polygon
   fill="#0000FF"
   points="173.5865,-100.0007 86.984,-150.0007 86.984,-250.0001 173.5865,-200.0001      "
   id="polygon263" />
					<polygon
   fill="#000080"
   points="260.1891,-150.0007 173.5865,-100.0007 173.5865,-200.0001 260.1891,-250.0001      "
   id="polygon265" />
				</g>
				<g
   id="g275">
					<polygon
   fill="#92FF92"
   points="433.3942,-250.0002 346.7916,-200.0002 260.1896,-249.9999 346.7921,-299.9999      "
   id="polygon269" />
					<polygon
   fill="#00FF00"
   points="346.7916,-100.0007 260.1891,-150.0007 260.1891,-250.0001 346.7916,-200.0001      "
   id="polygon271" />
					<polygon
   fill="#008000"
   points="433.3942,-150.0007 346.7916,-100.0007 346.7916,-200.0001 433.3942,-250.0001      "
   id="polygon273" />
				</g>
				<g
   id="g283">
					<polygon
   fill="#FF6D6D"
   points="346.7921,-399.9996 260.1896,-349.9996 173.5876,-399.9993 260.1902,-449.9993      "
   id="polygon277" />
					<polygon
   fill="#FF0000"
   points="260.1896,-250.0001 173.5871,-300.0001 173.5871,-399.9995 260.1896,-349.9995      "
   id="polygon279" />
					<polygon
   fill="#800000"
   points="346.7921,-300.0001 260.1896,-250.0001 260.1896,-349.9995 346.7921,-399.9995      "
   id="polygon281" />
				</g>
			</g>
			<g
   id="g311">
				<g
   id="g293">
					<polygon
   fill="#9292FF"
   points="519.9994,-299.9998 433.3969,-349.9998 346.7949,-300.0001 433.3974,-250.0001      "
   id="polygon287" />
					<polygon
   fill="#0000FF"
   points="433.3969,-449.9993 346.7943,-399.9993 346.7943,-299.9999 433.3969,-349.9999      "
   id="polygon289" />
					<polygon
   fill="#000080"
   points="519.9994,-399.9993 433.3969,-449.9993 433.3969,-349.9999 519.9994,-299.9999      "
   id="polygon291" />
				</g>
				<g
   id="g301">
					<polygon
   fill="#92FF92"
   points="693.2045,-299.9998 606.6019,-349.9998 519.9999,-300.0001 606.6025,-250.0001      "
   id="polygon295" />
					<polygon
   fill="#00FF00"
   points="606.6019,-449.9993 519.9994,-399.9993 519.9994,-299.9999 606.6019,-349.9999      "
   id="polygon297" />
					<polygon
   fill="#008000"
   points="693.2045,-399.9993 606.6019,-449.9993 606.6019,-349.9999 693.2045,-299.9999      "
   id="polygon299" />
				</g>
				<g
   id="g309">
					<polygon
   fill="#FF6D6D"
   points="606.6025,-150.0004 519.9999,-200.0004 433.3979,-150.0007 520.0005,-100.0007      "
   id="polygon303" />
					<polygon
   fill="#FF0000"
   points="519.9999,-299.9999 433.3974,-249.9999 433.3974,-150.0005 519.9999,-200.0005      "
   id="polygon305" />
					<polygon
   fill="#800000"
   points="606.6025,-249.9999 519.9999,-299.9999 519.9999,-200.0005 606.6025,-150.0005      "
   id="polygon307" />
				</g>
			</g>
		</g>
		<g
   id="g323">
			<g
   id="g321">
				<g
   id="g319">
					<polygon
   fill="#92FF92"
   points="173.2045,-299.9998 86.6019,-349.9998 -0.0001,-300.0001 86.6025,-250.0001      "
   id="polygon315" />
					<polygon
   fill="#008000"
   points="173.2045,-399.9993 86.6019,-449.9993 86.6019,-349.9999 173.2045,-299.9999      "
   id="polygon317" />
				</g>
			</g>
		</g>
		<g
   id="g331">
			<g
   id="g329">
				<g
   id="g327">
					<polygon
   fill="#0000FF"
   points="693.5865,-400.0007 606.984,-450.0007 606.984,-550.0001 693.5865,-500.0001      "
   id="polygon325" />
				</g>
			</g>
		</g>
		<g
   id="g353">
			<g
   id="g345">
				<g
   id="g337">
					<polygon
   fill="#0000FF"
   points="173.5865,-400.0007 86.984,-450.0007 86.984,-550.0001 173.5865,-500.0001      "
   id="polygon333" />
					<polygon
   fill="#000080"
   points="260.1891,-450.0007 173.5865,-400.0007 173.5865,-500.0001 260.1891,-550.0001      "
   id="polygon335" />
				</g>
				<g
   id="g343">
					<polygon
   fill="#00FF00"
   points="346.7916,-400.0007 260.1891,-450.0007 260.1891,-550.0001 346.7916,-500.0001      "
   id="polygon339" />
					<polygon
   fill="#008000"
   points="433.3942,-450.0007 346.7916,-400.0007 346.7916,-500.0001 433.3942,-550.0001      "
   id="polygon341" />
				</g>
			</g>
			<g
   id="g351">
				<g
   id="g349">
					<polygon
   fill="#FF6D6D"
   points="606.6025,-450.0004 519.9999,-500.0004 433.3979,-450.0007 520.0005,-400.0007      "
   id="polygon347" />
				</g>
			</g>
		</g>
	</g>
</pattern>

<g
   id="g1582"
   clip-path="url(#clipPath1584)"><rect
     fill="url(#New_Pattern_2)"
     width="2559.9988"
     height="1600"
     id="rect358"
     x="0"
     y="0"
     style="fill:url(#pattern1929)"
     clip-path="url(#clipPath2034)" /></g></svg>
