<?xml version="1.0" encoding="utf-8"?>
<!-- Generator: Adobe Illustrator 25.4.1, SVG Export Plug-In . SVG Version: 6.00 Build 0)  -->
<svg version="1.1"
	 id="Layer_1" inkscape:version="1.1.1 (c3084ef, 2021-09-22)" sodipodi:docname="tessalation.svg" xmlns:inkscape="http://www.inkscape.org/namespaces/inkscape" xmlns:sodipodi="http://sodipodi.sourceforge.net/DTD/sodipodi-0.dtd" xmlns:svg="http://www.w3.org/2000/svg"
	 xmlns="http://www.w3.org/2000/svg" xmlns:xlink="http://www.w3.org/1999/xlink" x="0px" y="0px" viewBox="0 0 519.2 300.1"
	 style="enable-background:new 0 0 519.2 300.1;" xml:space="preserve">
<style type="text/css">
	.st0{fill:none;}
	.st1{fill:#FF6D6D;}
	.st2{fill:#0000FF;}
	.st3{fill:#000080;}
	.st4{fill:#00FF00;}
	.st5{fill:#008000;}
	.st6{fill:#9292FF;}
	.st7{fill:#92FF92;}
	.st8{fill:#FF0000;}
	.st9{fill:#800000;}
	.st10{fill:url(#New_Pattern_2);}
</style>
<pattern  x="-43.6" y="275.2" width="520" height="300" patternUnits="userSpaceOnUse" id="New_Pattern_2" viewBox="130.1 -425 520 300" style="overflow:visible;">
	<g>
		<rect x="130.1" y="-425" class="st0" width="520" height="300"/>
		<g id="g355_00000090976103635961864000000008689387644730329736_">
			<polygon id="polygon219_00000167384867005998722080000012776768123823244171_" class="st0" points="130.1,-125 650.1,-125 
				650.1,-425 130.1,-425 			"/>
			<g id="g241_00000022559671239410443290000008222896497749784241_">
				<g id="g225_00000049218476167929172830000013608508770788120728_">
					<g id="g223_00000076581750423711340810000016429347531484526247_">
						<polygon id="polygon221_00000117659058305822756800000017224453150603572915_" class="st1" points="346.8,-450 260.2,-500 
							173.6,-450 260.2,-400 						"/>
					</g>
				</g>
				<g id="g239_00000051374073051573426420000004592637167749057198_">
					<g id="g231_00000071556956021401420900000016346389322012040336_">
						<polygon id="polygon227_00000106129730822691444850000008302832944706068404_" class="st2" points="433.4,-400 346.8,-450 
							346.8,-550 433.4,-500 						"/>
						<polygon id="polygon229_00000033351056611005226080000006793718542081570988_" class="st3" points="520,-450 433.4,-400 
							433.4,-500 520,-550 						"/>
					</g>
					<g id="g237_00000132794531552418925890000004444629351388857993_">
						<polygon id="polygon233_00000157291773897610461130000009709911157575259550_" class="st4" points="606.6,-400 520,-450 
							520,-550 606.6,-500 						"/>
						<polygon id="polygon235_00000112634911517928631650000016587831891058766513_" class="st5" points="693.2,-450 606.6,-400 
							606.6,-500 693.2,-550 						"/>
					</g>
				</g>
			</g>
			<g id="g249_00000108301814794541572950000003713443947230820521_">
				<g id="g247_00000070809099208581295390000001219722746526364566_">
					<g id="g245_00000031197811018160791010000015993564211489384348_">
						<polygon id="polygon243_00000183228721491741616000000011644245159294605746_" class="st5" points="173.2,-450 86.6,-400 
							86.6,-500 173.2,-550 						"/>
					</g>
				</g>
			</g>
			<g id="g259_00000172423216196898861250000004661499307732130469_">
				<g id="g257_00000121995056613352097410000011182892570725241765_">
					<g id="g255_00000004539398906563917600000006795138115575452059_">
						<polygon id="polygon251_00000103985456241542544440000001000647770815372439_" class="st6" points="780.2,-300 693.6,-350 
							607,-300 693.6,-250 						"/>
						<polygon id="polygon253_00000159466355542730748860000018380354284968853124_" class="st2" points="693.6,-450 607,-400 
							607,-300 693.6,-350 						"/>
					</g>
				</g>
			</g>
			<g id="g313_00000078723168520866402860000009825272109745906877_">
				<g id="g285_00000067219641785102759270000006853603462740630181_">
					<g id="g267_00000070107813763733853130000003649044055441724035_">
						<polygon id="polygon261_00000043428021901401548260000007338586920858250884_" class="st6" points="260.2,-300 173.6,-350 
							87,-300 173.6,-250 						"/>
						<polygon id="polygon263_00000083773566023157513430000005224094625496417415_" class="st2" points="173.6,-450 87,-400 
							87,-300 173.6,-350 						"/>
						<polygon id="polygon265_00000042737405649808853280000008862806826395204740_" class="st3" points="260.2,-400 173.6,-450 
							173.6,-350 260.2,-300 						"/>
					</g>
					<g id="g275_00000059995389138207629690000003797983327376932515_">
						<polygon id="polygon269_00000163756135618717451030000002487440893975936948_" class="st7" points="433.4,-300 346.8,-350 
							260.2,-300 346.8,-250 						"/>
						<polygon id="polygon271_00000030471676086669444050000002738543168065094040_" class="st4" points="346.8,-450 260.2,-400 
							260.2,-300 346.8,-350 						"/>
						<polygon id="polygon273_00000036239550740366356850000006462912437834274219_" class="st5" points="433.4,-400 346.8,-450 
							346.8,-350 433.4,-300 						"/>
					</g>
					<g id="g283_00000044159776954118950920000002355906808693156481_">
						<polygon id="polygon277_00000022549172872605893070000010724687179663607988_" class="st1" points="346.8,-150 260.2,-200 
							173.6,-150 260.2,-100 						"/>
						<polygon id="polygon279_00000078767337867936418780000016682118643801951638_" class="st8" points="260.2,-300 173.6,-250 
							173.6,-150 260.2,-200 						"/>
						<polygon id="polygon281_00000041999702062481228990000000563414348132887477_" class="st9" points="346.8,-250 260.2,-300 
							260.2,-200 346.8,-150 						"/>
					</g>
				</g>
				<g id="g311_00000165926503534493116440000002784683984711623078_">
					<g id="g293_00000181797195745816043420000002575855327663968924_">
						<polygon id="polygon287_00000048498182129186219000000008976967987987742639_" class="st6" points="520,-250 433.4,-200 
							346.8,-250 433.4,-300 						"/>
						<polygon id="polygon289_00000166675129258202581940000017456067525127514293_" class="st2" points="433.4,-100 346.8,-150 
							346.8,-250 433.4,-200 						"/>
						<polygon id="polygon291_00000097501934639592739030000009186704074996919225_" class="st3" points="520,-150 433.4,-100 
							433.4,-200 520,-250 						"/>
					</g>
					<g id="g301_00000167383920997753652680000015169127766042234004_">
						<polygon id="polygon295_00000075843833767447574500000018421159510585369764_" class="st7" points="693.2,-250 606.6,-200 
							520,-250 606.6,-300 						"/>
						<polygon id="polygon297_00000173161932668673393040000012078419713262891425_" class="st4" points="606.6,-100 520,-150 
							520,-250 606.6,-200 						"/>
						<polygon id="polygon299_00000139283217646305725040000017757683033610710421_" class="st5" points="693.2,-150 606.6,-100 
							606.6,-200 693.2,-250 						"/>
					</g>
					<g id="g309_00000088123388955272038290000014701309225182821280_">
						<polygon id="polygon303_00000047058760826782343040000015871294779250377129_" class="st1" points="606.6,-400 520,-350 
							433.4,-400 520,-450 						"/>
						<polygon id="polygon305_00000050664199345128843580000006762342848086809513_" class="st8" points="520,-250 433.4,-300 
							433.4,-400 520,-350 						"/>
						<polygon id="polygon307_00000026132118441307277910000004993203032152159158_" class="st9" points="606.6,-300 520,-250 
							520,-350 606.6,-400 						"/>
					</g>
				</g>
			</g>
			<g id="g323_00000055699172951088224010000012574908953079376281_">
				<g id="g321_00000031202304768775487960000008901538578616195006_">
					<g id="g319_00000137110340883912211770000008083235374585621898_">
						<polygon id="polygon315_00000028294541975405312140000006605896195212713871_" class="st7" points="173.2,-250 86.6,-200 
							0,-250 86.6,-300 						"/>
						<polygon id="polygon317_00000061445022074287485820000015533175499245055133_" class="st5" points="173.2,-150 86.6,-100 
							86.6,-200 173.2,-250 						"/>
					</g>
				</g>
			</g>
			<g id="g331_00000039839018057957180050000003309584933389604285_">
				<g id="g329_00000026140142567407156780000007191351263491136132_">
					<g id="g327_00000008130924266074835150000009299154004041590447_">
						<polygon id="polygon325_00000074440799087613525040000006003463030640555662_" class="st2" points="693.6,-150 607,-100 
							607,0 693.6,-50 						"/>
					</g>
				</g>
			</g>
			<g id="g353_00000062894666994296907340000004652059674468065179_">
				<g id="g345_00000108268947542855106730000012101156994919576207_">
					<g id="g337_00000172409885695127096810000012240857733436144780_">
						<polygon id="polygon333_00000148651948261406041030000010312198952704366219_" class="st2" points="173.6,-150 87,-100 87,0 
							173.6,-50 						"/>
						<polygon id="polygon335_00000150780651493624272270000005725627918806476164_" class="st3" points="260.2,-100 173.6,-150 
							173.6,-50 260.2,0 						"/>
					</g>
					<g id="g343_00000069388190781557088720000012230710492076520615_">
						<polygon id="polygon339_00000071559403090180156420000012030452245001730440_" class="st4" points="346.8,-150 260.2,-100 
							260.2,0 346.8,-50 						"/>
						<polygon id="polygon341_00000128487064229916716490000001698841049934782873_" class="st5" points="433.4,-100 346.8,-150 
							346.8,-50 433.4,0 						"/>
					</g>
				</g>
				<g id="g351_00000097468241998466024720000011788457249797970054_">
					<g id="g349_00000155837602459723135320000009292107790342185613_">
						<polygon id="polygon347_00000003811821657748927050000004038275959820066484_" class="st1" points="606.6,-100 520,-50 
							433.4,-100 520,-150 						"/>
					</g>
				</g>
			</g>
		</g>
	</g>
</pattern>
<rect class="st10" width="519.2" height="300.1"/>
</svg>
